<?xml version="1.0" encoding="iso-8859-1"?>
<!-- Generator: Adobe Illustrator 19.0.0, SVG Export Plug-In . SVG Version: 6.00 Build 0)  -->
<svg version="1.1" id="Capa_1" xmlns="http://www.w3.org/2000/svg" xmlns:xlink="http://www.w3.org/1999/xlink" x="0px" y="0px"
	 viewBox="0 0 511.999 511.999" style="enable-background:new 0 0 511.999 511.999;" xml:space="preserve">
<g>
	<g>
		<path d="M339.14,59.842v177.612c0,82.395-48.87,156.821-124.502,189.607l-62.178,26.954l19.53,15.518
			c20.36,16.178,42.716,29.598,66.45,39.886l5.95,2.579l5.95-2.579c108.473-47.024,178.564-153.777,178.564-271.966V59.842H339.14z"
			/>
	</g>
</g>
<g>
	<g>
		<path d="M84.811,59.842v89.763h134.645v87.849c0,34.67-20.577,65.993-52.421,79.798l-83.944,36.389l6.903,14.077
			c9.356,19.083,20.825,37.221,34.088,53.913l7.137,8.981l71.518-31.002c64.687-28.042,106.482-91.692,106.482-162.156V59.842
			H84.811z"/>
	</g>
</g>
<g>
	<g>
		<rect x="84.815" width="344.093" height="29.921"/>
	</g>
</g>
<g>
</g>
<g>
</g>
<g>
</g>
<g>
</g>
<g>
</g>
<g>
</g>
<g>
</g>
<g>
</g>
<g>
</g>
<g>
</g>
<g>
</g>
<g>
</g>
<g>
</g>
<g>
</g>
<g>
</g>
</svg>
